<svg width="17" height="16" fill="none" xmlns="http://www.w3.org/2000/svg"><path d="M14.674 10.667h-8.38a.623.623 0 01-.382-.13.595.595 0 01-.216-.335l-1.411-5.99a.582.582 0 01.118-.505.61.61 0 01.48-.225h11.203a.627.627 0 01.48.225.589.589 0 01.119.506l-1.414 5.99a.595.595 0 01-.215.333.623.623 0 01-.382.13zM6.782 9.473h7.404l1.13-4.796H5.651l1.131 4.796zM7.493 16c-.464 0-.918-.134-1.304-.386a2.3 2.3 0 01-.865-1.026 2.233 2.233 0 01-.134-1.322 2.27 2.27 0 01.643-1.171c.328-.32.747-.538 1.202-.627a2.407 2.407 0 011.357.13c.429.174.796.467 1.054.843.258.376.395.819.395 1.271a2.26 2.26 0 01-.688 1.617c-.44.43-1.037.67-1.66.671zm0-3.381c-.222 0-.439.064-.623.184a1.1 1.1 0 00-.414.491 1.068 1.068 0 00.244 1.192 1.15 1.15 0 001.223.237c.205-.083.38-.223.504-.403a1.074 1.074 0 00-.14-1.38 1.139 1.139 0 00-.794-.321zM13.475 16c-.465 0-.919-.134-1.305-.386a2.301 2.301 0 01-.865-1.026 2.233 2.233 0 01-.133-1.322 2.27 2.27 0 01.642-1.171c.329-.32.747-.538 1.202-.627a2.407 2.407 0 011.357.13c.43.174.796.467 1.054.843.258.376.396.819.396 1.271a2.26 2.26 0 01-.689 1.617c-.44.43-1.037.67-1.66.671zm0-3.381c-.223 0-.44.064-.624.184a1.1 1.1 0 00-.414.491 1.067 1.067 0 00.244 1.192 1.15 1.15 0 001.224.237 1.12 1.12 0 00.503-.403 1.074 1.074 0 00-.14-1.38 1.139 1.139 0 00-.793-.321z" fill="#fff"/><path d="M4.882 4.676a.624.624 0 01-.358-.113.598.598 0 01-.223-.295L3.25 1.194H1.313a.621.621 0 01-.434-.175.59.59 0 010-.844A.621.621 0 011.313 0h2.381c.129 0 .254.04.359.113a.598.598 0 01.223.295l1.19 3.483a.582.582 0 01-.085.537.609.609 0 01-.497.248h-.002z" fill="#fff"/></svg>