<svg width="315" height="60" fill="none" xmlns="http://www.w3.org/2000/svg"><path fill="#1E1D24" d="M0 4h23v24H0zm0 29h23v24H0zm29 0h23v24H29z"/><path fill="#FD484E" d="M23 16.264L39.264 0l16.97 16.971-16.263 16.263z"/><path d="M114.56 16.448h-6.96L99.728 40.4l-7.536-24h-6.24l-7.584 24-7.824-23.952h-7.008L74.816 50h6.528l7.728-23.856 7.68 23.904h6.528l11.28-33.6zm10.989.48c-1.728 0-3.168 1.248-3.168 2.736 0 1.536 1.44 2.736 3.168 2.736 1.776 0 3.216-1.2 3.216-2.736 0-1.488-1.44-2.736-3.216-2.736zM128.525 26h-5.856v24h5.856V26zm25.446-.432c-3.504 0-7.104 1.296-9.984 3.6V26h-5.856v24h5.856V33.2a11.634 11.634 0 017.728-2.928c3.024 0 5.088 1.92 5.088 5.472V50h5.856V34.064c0-5.712-3.744-8.496-8.688-8.496zm35.396-9.6c-9.888 0-17.856 7.728-17.856 17.28 0 9.504 7.968 17.232 17.856 17.232 9.84 0 17.808-7.728 17.808-17.232 0-9.552-7.968-17.28-17.808-17.28zm0 5.856c6.432 0 11.328 5.088 11.328 11.424 0 6.288-4.896 11.376-11.328 11.376-6.48 0-11.328-5.088-11.328-11.376 0-6.336 4.848-11.424 11.328-11.424zm41.322 3.696c-3.216 0-6.144 1.44-8.256 3.744V26h-5.856v33.36h5.856V46.784c2.112 2.304 5.04 3.696 8.256 3.696 6.72 0 11.232-5.568 11.232-12.48 0-6.912-4.512-12.48-11.232-12.48zm-2.064 4.992c4.128 0 7.536 3.36 7.536 7.488 0 4.176-3.408 7.536-7.536 7.536a7.529 7.529 0 01-6.192-3.264v-8.496a7.529 7.529 0 016.192-3.264zm33.318-4.992c-6.864 0-12.432 5.568-12.432 12.48 0 6.912 5.664 12.48 12.672 12.48 3.984 0 7.632-1.536 10.272-4.08l-3.072-2.784c-1.776 1.68-4.176 2.64-6.72 2.64-3.936 0-7.344-2.736-7.488-6.672h19.152V38c0-6.912-4.608-12.48-12.384-12.48zm.096 4.176c4.272 0 6.864 3.12 6.864 7.056h-13.728c0-3.888 3.12-7.056 6.864-7.056zm36.251-4.128c-3.504 0-7.104 1.296-9.984 3.6V26h-5.856v24h5.856V33.2a11.634 11.634 0 017.728-2.928c3.024 0 5.088 1.92 5.088 5.472V50h5.856V34.064c0-5.712-3.744-8.496-8.688-8.496z" fill="#1E1D24"/></svg>