<svg width="17" height="16" viewBox="0 0 17 16" fill="none" xmlns="http://www.w3.org/2000/svg">
<path d="M14.6738 10.6667H6.29437C6.15533 10.6669 6.02035 10.621 5.9116 10.5366C5.80284 10.4522 5.72679 10.3343 5.69592 10.2022L4.28498 4.21293C4.26434 4.12544 4.26422 4.03455 4.28462 3.947C4.30502 3.85946 4.34542 3.77753 4.40282 3.7073C4.46021 3.63708 4.53312 3.58037 4.61612 3.54139C4.69911 3.50242 4.79006 3.48218 4.8822 3.48219H16.086C16.1782 3.482 16.2693 3.50211 16.3525 3.541C16.4356 3.5799 16.5087 3.63659 16.5662 3.70684C16.6238 3.77709 16.6643 3.85908 16.6847 3.94671C16.7052 4.03434 16.7051 4.12535 16.6845 4.21293L15.2711 10.2022C15.2402 10.3341 15.1644 10.4519 15.0559 10.5362C14.9474 10.6206 14.8127 10.6666 14.6738 10.6667V10.6667ZM6.78211 9.47263H14.1861L15.3164 4.67741H5.6514L6.78211 9.47263Z" fill="white"/>
<path d="M7.4933 16C7.0289 16 6.57493 15.8658 6.1888 15.6144C5.80267 15.3631 5.50171 15.0058 5.324 14.5877C5.14628 14.1697 5.09978 13.7097 5.19038 13.2659C5.28098 12.8221 5.50461 12.4145 5.83299 12.0945C6.16137 11.7746 6.57974 11.5567 7.03522 11.4684C7.49069 11.3802 7.9628 11.4255 8.39185 11.5986C8.8209 11.7718 9.18761 12.065 9.44561 12.4412C9.70362 12.8174 9.84133 13.2598 9.84133 13.7122C9.84068 14.3188 9.59309 14.9003 9.15289 15.3292C8.71269 15.7581 8.11583 15.9994 7.4933 16V16ZM7.4933 12.6189C7.27126 12.6189 7.05421 12.6831 6.8696 12.8033C6.68499 12.9235 6.54111 13.0943 6.45616 13.2942C6.37121 13.4941 6.349 13.714 6.39235 13.9262C6.4357 14.1383 6.54265 14.3332 6.69968 14.4862C6.85671 14.6391 7.05677 14.7432 7.27455 14.7854C7.49233 14.8276 7.71805 14.8058 7.92316 14.723C8.12827 14.6402 8.30356 14.4999 8.42686 14.32C8.55016 14.1401 8.61592 13.9286 8.61584 13.7122C8.61552 13.4223 8.49713 13.1443 8.28667 12.9393C8.07621 12.7344 7.79088 12.6191 7.4933 12.6189V12.6189Z" fill="white"/>
<path d="M13.4745 16C13.0101 16 12.5561 15.8658 12.17 15.6144C11.7839 15.3631 11.4829 15.0058 11.3052 14.5877C11.1275 14.1697 11.081 13.7097 11.1716 13.2659C11.2622 12.8221 11.4858 12.4145 11.8142 12.0945C12.1426 11.7746 12.5609 11.5567 13.0164 11.4684C13.4719 11.3802 13.944 11.4255 14.3731 11.5986C14.8021 11.7718 15.1688 12.065 15.4268 12.4412C15.6848 12.8174 15.8225 13.2598 15.8225 13.7122C15.8219 14.3188 15.5743 14.9003 15.1341 15.3292C14.6939 15.7581 14.097 15.9994 13.4745 16V16ZM13.4745 12.6189C13.2525 12.6189 13.0354 12.6831 12.8508 12.8033C12.6662 12.9235 12.5223 13.0943 12.4374 13.2942C12.3524 13.4941 12.3302 13.714 12.3736 13.9262C12.4169 14.1383 12.5239 14.3332 12.6809 14.4862C12.8379 14.6391 13.038 14.7432 13.2558 14.7854C13.4735 14.8276 13.6992 14.8058 13.9044 14.723C14.1095 14.6402 14.2848 14.4999 14.4081 14.32C14.5314 14.1401 14.5971 13.9286 14.597 13.7122C14.5967 13.4223 14.4783 13.1443 14.2679 12.9393C14.0574 12.7344 13.7721 12.6191 13.4745 12.6189Z" fill="white"/>
<path d="M4.88219 4.67622C4.75357 4.67621 4.62822 4.63676 4.52389 4.56347C4.41956 4.49018 4.34154 4.38676 4.3009 4.26786L3.25066 1.19403H1.31276C1.15025 1.19403 0.994392 1.13113 0.879481 1.01917C0.764569 0.907206 0.700012 0.755353 0.700012 0.597015C0.700012 0.438677 0.764569 0.286824 0.879481 0.174862C0.994392 0.0628996 1.15025 0 1.31276 0H3.69428C3.8229 1.1595e-05 3.94826 0.0394576 4.05259 0.112749C4.15692 0.186041 4.23493 0.289462 4.27557 0.408358L5.46552 3.89055C5.4962 3.98028 5.50455 4.07583 5.4899 4.16933C5.47524 4.26283 5.438 4.3516 5.38123 4.42832C5.32447 4.50504 5.2498 4.56753 5.1634 4.61063C5.07699 4.65373 4.98131 4.67621 4.88423 4.67622H4.88219Z" fill="white"/>
</svg>
