<svg width="315" height="60" viewBox="0 0 315 60" fill="none" xmlns="http://www.w3.org/2000/svg">
<rect y="4" width="23" height="24" fill="#1E1D24"/>
<rect y="33" width="23" height="24" fill="#1E1D24"/>
<rect x="29" y="33" width="23" height="24" fill="#1E1D24"/>
<rect x="23" y="16.2635" width="23" height="24" transform="rotate(-45 23 16.2635)" fill="#FD484E"/>
<path d="M114.56 16.448H107.6L99.728 40.4L92.192 16.4H85.952L78.368 40.4L70.544 16.448H63.536L74.816 50H81.344L89.072 26.144L96.752 50.048H103.28L114.56 16.448ZM125.549 16.928C123.821 16.928 122.381 18.176 122.381 19.664C122.381 21.2 123.821 22.4 125.549 22.4C127.325 22.4 128.765 21.2 128.765 19.664C128.765 18.176 127.325 16.928 125.549 16.928ZM128.525 26H122.669V50H128.525V26ZM153.971 25.568C150.467 25.568 146.867 26.864 143.987 29.168V26H138.131V50H143.987V33.2C146.099 31.328 148.835 30.272 151.715 30.272C154.739 30.272 156.803 32.192 156.803 35.744V50H162.659V34.064C162.659 28.352 158.915 25.568 153.971 25.568ZM189.367 15.968C179.479 15.968 171.511 23.696 171.511 33.248C171.511 42.752 179.479 50.48 189.367 50.48C199.207 50.48 207.175 42.752 207.175 33.248C207.175 23.696 199.207 15.968 189.367 15.968ZM189.367 21.824C195.799 21.824 200.695 26.912 200.695 33.248C200.695 39.536 195.799 44.624 189.367 44.624C182.887 44.624 178.039 39.536 178.039 33.248C178.039 26.912 182.887 21.824 189.367 21.824ZM230.689 25.52C227.473 25.52 224.545 26.96 222.433 29.264V26H216.577V59.36H222.433V46.784C224.545 49.088 227.473 50.48 230.689 50.48C237.409 50.48 241.921 44.912 241.921 38C241.921 31.088 237.409 25.52 230.689 25.52ZM228.625 30.512C232.753 30.512 236.161 33.872 236.161 38C236.161 42.176 232.753 45.536 228.625 45.536C226.081 45.536 223.777 44.24 222.433 42.272V33.776C223.777 31.808 226.081 30.512 228.625 30.512ZM261.943 25.52C255.079 25.52 249.511 31.088 249.511 38C249.511 44.912 255.175 50.48 262.183 50.48C266.167 50.48 269.815 48.944 272.455 46.4L269.383 43.616C267.607 45.296 265.207 46.256 262.663 46.256C258.727 46.256 255.319 43.52 255.175 39.584H274.327V38C274.327 31.088 269.719 25.52 261.943 25.52ZM262.039 29.696C266.311 29.696 268.903 32.816 268.903 36.752H255.175C255.175 32.864 258.295 29.696 262.039 29.696ZM298.29 25.568C294.786 25.568 291.186 26.864 288.306 29.168V26H282.45V50H288.306V33.2C290.418 31.328 293.154 30.272 296.034 30.272C299.058 30.272 301.122 32.192 301.122 35.744V50H306.978V34.064C306.978 28.352 303.234 25.568 298.29 25.568Z" fill="#1E1D24"/>
</svg>
